<svg xmlns="http://www.w3.org/2000/svg" viewBox="0 0 320 200">
<title>Tres sillas</title>
<clipPath id="recorte-sillas-osos"><rect x="0" y="0" width="320" height="200" rx="16"/></clipPath><g clip-path="url(#recorte-sillas-osos)"><rect class="cielo" x="0" y="0" width="320" height="200" fill="#ffe8cc"/><path class="suelo" d="M0 150h320v50H0z" fill="#d9a066" stroke="#2b2236" stroke-width="4"/><path d="M240 30h50v50h-50z" fill="#bfe6ff" stroke="#2b2236" stroke-width="4" stroke-linejoin="round" stroke-linecap="round"/><path d="M265 30v50" fill="none" stroke="#2b2236" stroke-width="3" stroke-linejoin="round" stroke-linecap="round"/><g transform="translate(70 188) scale(1.2)"><path d="M-20 0v-40h40v40M-20-40v-50h6v50M14-40v-50h6v50M-20-80h40" fill="#5b6fd6" stroke="#2b2236" stroke-width="4" stroke-linejoin="round" stroke-linecap="round"/><path d="M-24-44h48v8h-48z" fill="#5b6fd6" stroke="#2b2236" stroke-width="4" stroke-linejoin="round" stroke-linecap="round"/></g><g transform="translate(160 188) scale(1)"><path d="M-20 0v-40h40v40M-20-40v-50h6v50M14-40v-50h6v50M-20-80h40" fill="#ff7eb6" stroke="#2b2236" stroke-width="4" stroke-linejoin="round" stroke-linecap="round"/><path d="M-24-44h48v8h-48z" fill="#ff7eb6" stroke="#2b2236" stroke-width="4" stroke-linejoin="round" stroke-linecap="round"/></g><g transform="translate(240 188) scale(0.75)"><path d="M-20 0v-40h40v40M-20-40v-50h6v50M14-40v-50h6v50M-20-80h40" fill="#ffc43d" stroke="#2b2236" stroke-width="4" stroke-linejoin="round" stroke-linecap="round"/><path d="M-24-44h48v8h-48z" fill="#ffc43d" stroke="#2b2236" stroke-width="4" stroke-linejoin="round" stroke-linecap="round"/></g></g><rect x="2" y="2" width="316" height="196" rx="16" fill="none" stroke="#2b2236" stroke-width="4"/>
</svg>
