<svg xmlns="http://www.w3.org/2000/svg" viewBox="0 -20 420 390">
<title>Ejemplo armado: barras de bloques, cabezas abajo y diferencia sombreada (¿cuántos más leones que elefantes?)</title>
<path d="M40 300h360" stroke="#2b2236" stroke-opacity="0.45" stroke-width="3"/><text x="30" y="307" font-family="Fredoka, 'Baloo 2', 'Arial Rounded MT Bold', Arial, sans-serif" font-weight="700" font-size="20" text-anchor="end" fill="#2b2236">0</text><path d="M40 270h360" stroke="#2b2236" stroke-opacity="0.25" stroke-width="2"/><text x="30" y="277" font-family="Fredoka, 'Baloo 2', 'Arial Rounded MT Bold', Arial, sans-serif" font-weight="700" font-size="20" text-anchor="end" fill="#2b2236">1</text><path d="M40 240h360" stroke="#2b2236" stroke-opacity="0.25" stroke-width="2"/><text x="30" y="247" font-family="Fredoka, 'Baloo 2', 'Arial Rounded MT Bold', Arial, sans-serif" font-weight="700" font-size="20" text-anchor="end" fill="#2b2236">2</text><path d="M40 210h360" stroke="#2b2236" stroke-opacity="0.25" stroke-width="2"/><text x="30" y="217" font-family="Fredoka, 'Baloo 2', 'Arial Rounded MT Bold', Arial, sans-serif" font-weight="700" font-size="20" text-anchor="end" fill="#2b2236">3</text><path d="M40 180h360" stroke="#2b2236" stroke-opacity="0.25" stroke-width="2"/><text x="30" y="187" font-family="Fredoka, 'Baloo 2', 'Arial Rounded MT Bold', Arial, sans-serif" font-weight="700" font-size="20" text-anchor="end" fill="#2b2236">4</text><path d="M40 150h360" stroke="#2b2236" stroke-opacity="0.45" stroke-width="3"/><text x="30" y="157" font-family="Fredoka, 'Baloo 2', 'Arial Rounded MT Bold', Arial, sans-serif" font-weight="700" font-size="20" text-anchor="end" fill="#2b2236">5</text><path d="M40 120h360" stroke="#2b2236" stroke-opacity="0.25" stroke-width="2"/><text x="30" y="127" font-family="Fredoka, 'Baloo 2', 'Arial Rounded MT Bold', Arial, sans-serif" font-weight="700" font-size="20" text-anchor="end" fill="#2b2236">6</text><path d="M40 90h360" stroke="#2b2236" stroke-opacity="0.25" stroke-width="2"/><text x="30" y="97" font-family="Fredoka, 'Baloo 2', 'Arial Rounded MT Bold', Arial, sans-serif" font-weight="700" font-size="20" text-anchor="end" fill="#2b2236">7</text><path d="M40 60h360" stroke="#2b2236" stroke-opacity="0.25" stroke-width="2"/><text x="30" y="67" font-family="Fredoka, 'Baloo 2', 'Arial Rounded MT Bold', Arial, sans-serif" font-weight="700" font-size="20" text-anchor="end" fill="#2b2236">8</text><path d="M40 30h360" stroke="#2b2236" stroke-opacity="0.25" stroke-width="2"/><text x="30" y="37" font-family="Fredoka, 'Baloo 2', 'Arial Rounded MT Bold', Arial, sans-serif" font-weight="700" font-size="20" text-anchor="end" fill="#2b2236">9</text><path d="M40 0h360" stroke="#2b2236" stroke-opacity="0.45" stroke-width="3"/><text x="30" y="7" font-family="Fredoka, 'Baloo 2', 'Arial Rounded MT Bold', Arial, sans-serif" font-weight="700" font-size="20" text-anchor="end" fill="#2b2236">10</text><path d="M40 -10V300h364" fill="none" stroke="#2b2236" stroke-width="5" stroke-linecap="round"/><rect class="bloque" x="71" y="271" width="58" height="28" rx="4" fill="#4cb3ff" stroke="rgba(0,0,0,.25)" stroke-width="2"/><rect class="bloque" x="71" y="241" width="58" height="28" rx="4" fill="#4cb3ff" stroke="rgba(0,0,0,.25)" stroke-width="2"/><rect class="bloque" x="71" y="211" width="58" height="28" rx="4" fill="#4cb3ff" stroke="rgba(0,0,0,.25)" stroke-width="2"/><g transform="translate(100 340) scale(.62)"><circle cx="-28" cy="2" r="10" fill="#8a5a3c" stroke="#2b2236" stroke-width="4"/><circle cx="28" cy="2" r="10" fill="#8a5a3c" stroke="#2b2236" stroke-width="4"/><circle cx="-28" cy="2" r="5" fill="#f0c9a0" stroke="#2b2236" stroke-width="0"/><circle cx="28" cy="2" r="5" fill="#f0c9a0" stroke="#2b2236" stroke-width="0"/><circle cx="0" cy="0" r="26" fill="#8a5a3c" stroke="#2b2236" stroke-width="4.5"/><path d="M-16 6c0-14 6-18 16-12 10-6 16-2 16 12 0 12-8 18-16 18s-16-6-16-18z" fill="#f0c9a0" stroke="#2b2236" stroke-width="3.5" stroke-linejoin="round" stroke-linecap="round"/><circle cx="-8" cy="0" r="3.5" fill="#2b2236"/><circle cx="-6.8" cy="-1.2" r="1.2" fill="#fff"/><circle cx="8" cy="0" r="3.5" fill="#2b2236"/><circle cx="9.2" cy="-1.2" r="1.2" fill="#fff"/><path d="M-5 14q5 4 10 0" fill="none" stroke="#2b2236" stroke-width="3" stroke-linecap="round"/></g><rect class="bloque" x="156" y="271" width="58" height="28" rx="4" fill="#ff6b4a" stroke="rgba(0,0,0,.25)" stroke-width="2"/><rect class="bloque" x="156" y="241" width="58" height="28" rx="4" fill="#ff6b4a" stroke="rgba(0,0,0,.25)" stroke-width="2"/><rect class="bloque" x="156" y="211" width="58" height="28" rx="4" fill="#ff6b4a" stroke="rgba(0,0,0,.25)" stroke-width="2"/><rect class="bloque" x="156" y="181" width="58" height="28" rx="4" fill="#ff6b4a" stroke="rgba(0,0,0,.25)" stroke-width="2"/><rect class="bloque" x="156" y="151" width="58" height="28" rx="4" fill="#ff6b4a" stroke="rgba(0,0,0,.25)" stroke-width="2"/><g transform="translate(185 340) scale(.62)"><circle cx="26" cy="0" r="12" fill="#d9822b" stroke="#2b2236" stroke-width="4"/><circle cx="21.03" cy="15.28" r="12" fill="#d9822b" stroke="#2b2236" stroke-width="4"/><circle cx="8.03" cy="24.73" r="12" fill="#d9822b" stroke="#2b2236" stroke-width="4"/><circle cx="-8.03" cy="24.73" r="12" fill="#d9822b" stroke="#2b2236" stroke-width="4"/><circle cx="-21.03" cy="15.28" r="12" fill="#d9822b" stroke="#2b2236" stroke-width="4"/><circle cx="-26" cy="0" r="12" fill="#d9822b" stroke="#2b2236" stroke-width="4"/><circle cx="-21.03" cy="-15.28" r="12" fill="#d9822b" stroke="#2b2236" stroke-width="4"/><circle cx="-8.03" cy="-24.73" r="12" fill="#d9822b" stroke="#2b2236" stroke-width="4"/><circle cx="8.03" cy="-24.73" r="12" fill="#d9822b" stroke="#2b2236" stroke-width="4"/><circle cx="21.03" cy="-15.28" r="12" fill="#d9822b" stroke="#2b2236" stroke-width="4"/><circle cx="0" cy="0" r="24" fill="#ffc43d" stroke="#2b2236" stroke-width="4.5"/><circle cx="-14" cy="-16" r="6" fill="#ffc43d" stroke="#2b2236" stroke-width="3"/><circle cx="14" cy="-16" r="6" fill="#ffc43d" stroke="#2b2236" stroke-width="3"/><circle cx="-8" cy="-2" r="3.5" fill="#2b2236"/><circle cx="-6.8" cy="-3.2" r="1.2" fill="#fff"/><circle cx="8" cy="-2" r="3.5" fill="#2b2236"/><circle cx="9.2" cy="-3.2" r="1.2" fill="#fff"/><path d="M-5 6h10l-5 5z" fill="#8a3b2b" stroke="#2b2236" stroke-width="2.5" stroke-linejoin="round" stroke-linecap="round"/><path d="M-8 13q4 3.2 8 0" fill="none" stroke="#2b2236" stroke-width="3" stroke-linecap="round"/><path d="M0 13q4 3.2 8 0" fill="none" stroke="#2b2236" stroke-width="3" stroke-linecap="round"/><circle cx="-14" cy="8" r="4.5" fill="#ff8fa3" opacity=".5"/><circle cx="14" cy="8" r="4.5" fill="#ff8fa3" opacity=".5"/></g><rect class="bloque" x="241" y="271" width="58" height="28" rx="4" fill="#3ccf8e" stroke="rgba(0,0,0,.25)" stroke-width="2"/><rect class="bloque" x="241" y="241" width="58" height="28" rx="4" fill="#3ccf8e" stroke="rgba(0,0,0,.25)" stroke-width="2"/><rect class="bloque" x="241" y="211" width="58" height="28" rx="4" fill="#3ccf8e" stroke="rgba(0,0,0,.25)" stroke-width="2"/><rect class="bloque" x="241" y="181" width="58" height="28" rx="4" fill="#3ccf8e" stroke="rgba(0,0,0,.25)" stroke-width="2"/><rect class="bloque" x="241" y="151" width="58" height="28" rx="4" fill="#3ccf8e" stroke="rgba(0,0,0,.25)" stroke-width="2"/><rect class="bloque" x="241" y="121" width="58" height="28" rx="4" fill="#3ccf8e" stroke="rgba(0,0,0,.25)" stroke-width="2"/><rect class="bloque" x="241" y="91" width="58" height="28" rx="4" fill="#3ccf8e" stroke="rgba(0,0,0,.25)" stroke-width="2"/><g transform="translate(270 340) scale(.62)"><path d="M-8-24v-12M8-24v-12" fill="none" stroke="#2b2236" stroke-width="4" stroke-linejoin="round" stroke-linecap="round"/><circle cx="-8" cy="-38" r="5" fill="#a86b3c" stroke="#2b2236" stroke-width="3"/><circle cx="8" cy="-38" r="5" fill="#a86b3c" stroke="#2b2236" stroke-width="3"/><path d="M-18-16l-14-6 10 12zM18-16l14-6-10 12z" fill="#ffc43d" stroke="#2b2236" stroke-width="3.5" stroke-linejoin="round" stroke-linecap="round"/><path d="M-20-6c0-18 8-26 20-26s20 8 20 26v14c0 14-8 22-20 22s-20-8-20-22z" fill="#ffc43d" stroke="#2b2236" stroke-width="4.5" stroke-linejoin="round" stroke-linecap="round"/><ellipse cx="-12" cy="-18" rx="5" ry="4" fill="#d9822b" stroke="#2b2236" stroke-width="0"/><ellipse cx="12" cy="-20" rx="4" ry="3.2" fill="#d9822b" stroke="#2b2236" stroke-width="0"/><ellipse cx="-14" cy="4" rx="3.5" ry="2.8" fill="#d9822b" stroke="#2b2236" stroke-width="0"/><ellipse cx="14" cy="2" rx="4" ry="3.2" fill="#d9822b" stroke="#2b2236" stroke-width="0"/><ellipse cx="0" cy="18" rx="14" ry="10" fill="#f0c890" stroke="#2b2236" stroke-width="3.5"/><circle cx="-5" cy="16" r="1.8" fill="#2b2236" stroke="#2b2236" stroke-width="0"/><circle cx="5" cy="16" r="1.8" fill="#2b2236" stroke="#2b2236" stroke-width="0"/><circle cx="-9" cy="-4" r="3.5" fill="#2b2236"/><circle cx="-7.8" cy="-5.2" r="1.2" fill="#fff"/><circle cx="9" cy="-4" r="3.5" fill="#2b2236"/><circle cx="10.2" cy="-5.2" r="1.2" fill="#fff"/></g><rect class="bloque" x="326" y="271" width="58" height="28" rx="4" fill="#c86bfa" stroke="rgba(0,0,0,.25)" stroke-width="2"/><rect class="bloque" x="326" y="241" width="58" height="28" rx="4" fill="#c86bfa" stroke="rgba(0,0,0,.25)" stroke-width="2"/><g transform="translate(355 340) scale(.62)"><ellipse cx="-28" cy="-2" rx="16" ry="20" fill="#a9b4c8" stroke="#2b2236" stroke-width="4.5"/><ellipse cx="28" cy="-2" rx="16" ry="20" fill="#a9b4c8" stroke="#2b2236" stroke-width="4.5"/><ellipse cx="-28" cy="-2" rx="9" ry="12" fill="#f3c3d3" stroke="#2b2236" stroke-width="0"/><ellipse cx="28" cy="-2" rx="9" ry="12" fill="#f3c3d3" stroke="#2b2236" stroke-width="0"/><circle cx="0" cy="-4" r="24" fill="#a9b4c8" stroke="#2b2236" stroke-width="4.5"/><path d="M-7 8c0 12 0 22 6 28 4 4 10 0 6-4-4-4-2-14-2-24z" fill="#a9b4c8" stroke="#2b2236" stroke-width="4" stroke-linejoin="round" stroke-linecap="round"/><circle cx="-9" cy="-8" r="3.5" fill="#2b2236"/><circle cx="-7.8" cy="-9.2" r="1.2" fill="#fff"/><circle cx="9" cy="-8" r="3.5" fill="#2b2236"/><circle cx="10.2" cy="-9.2" r="1.2" fill="#fff"/><circle cx="-14" cy="4" r="4.5" fill="#ff8fa3" opacity=".5"/><circle cx="14" cy="4" r="4.5" fill="#ff8fa3" opacity=".5"/></g><rect x="325" y="150" width="60" height="90" fill="#ff6b4a" fill-opacity=".28" stroke="#ff6b4a" stroke-width="3" stroke-dasharray="7 5"/><path d="M155 150h230" stroke="#2b2236" stroke-width="3" stroke-dasharray="8 6"/>
</svg>
